Coordinates
version=1
nRows=13
nColumns=40
inDegrees=yes

Units are S.I. units (second, meters, Newtons, ...)
If the header above contains a line with 'inDegrees', this indicates whether rotational values are in degrees (yes) or radians (no).

endheader
time	pelvis_tilt	pelvis_list	pelvis_rotation	pelvis_tx	pelvis_ty	pelvis_tz	hip_flexion_r	hip_adduction_r	hip_rotation_r	knee_angle_r	knee_angle_r_beta	ankle_angle_r	subtalar_angle_r	mtp_angle_r	hip_flexion_l	hip_adduction_l	hip_rotation_l	knee_angle_l	knee_angle_l_beta	ankle_angle_l	subtalar_angle_l	mtp_angle_l	lumbar_extension	lumbar_bending	lumbar_rotation	arm_flex_r	arm_add_r	arm_rot_r	elbow_flex_r	pro_sup_r	wrist_flex_r	wrist_dev_r	arm_flex_l	arm_add_l	arm_rot_l	elbow_flex_l	pro_sup_l	wrist_flex_l	wrist_dev_l
      3.67500000	     -6.33078925	     -8.94822057	      1.87728418	     -0.33313705	      0.71108459	     -0.97789370	     63.42032907	      0.19123774	     -6.27457098	     11.67453120	      0.20375901	    -17.81841548	      0.00000000	      0.00000000	     64.47645507	     -6.74760571	      2.02596064	     96.89528575	      1.69114177	     28.06552803	      0.00000000	      0.00000000	    -19.33862785	      2.28227554	      5.71525707	     89.93499121	    -11.75503671	     12.03381450	     35.72053991	     79.39460552	      0.00000000	      0.00000000	     89.95177128	    -25.31161749	     16.57823883	     46.01561230	     81.76802856	      0.00000000	      0.00000000
      3.68000000	     -6.37750176	     -9.01835181	      1.87635132	     -0.33309457	      0.71078881	     -0.97783409	     63.47646684	      0.24024947	     -6.33213344	     11.66801753	      0.20364532	    -17.78608016	      0.00000000	      0.00000000	     64.58178570	     -6.79100970	      2.09146411	     96.96864385	      1.69242211	     28.06431802	      0.00000000	      0.00000000	    -19.29765392	      2.34838400	      5.71647690	     89.93495170	    -11.79630599	     12.16133762	     35.73487852	     79.42969966	      0.00000000	      0.00000000	     89.95180718	    -25.31435794	     16.55801125	     46.01405103	     81.81394045	      0.00000000	      0.00000000
      3.68500000	     -6.42398940	     -9.04487666	      1.88290801	     -0.33312090	      0.71055143	     -0.97773014	     63.53233346	      0.26179177	     -6.35037283	     11.65225583	      0.20337023	    -17.76851812	      0.00000000	      0.00000000	     64.65581676	     -6.82181862	      2.11612528	     96.99576193	      1.69289541	     28.09365286	      0.00000000	      0.00000000	    -19.25804127	      2.35991611	      5.71120303	     89.93485254	    -11.82414933	     12.20344050	     35.71808068	     79.37287203	      0.00000000	      0.00000000	     89.95188482	    -25.29647338	     16.54579500	     46.01364127	     81.82260457	      0.00000000	      0.00000000
      3.69000000	     -6.44012029	     -9.06578143	      1.87912143	     -0.33312128	      0.71037281	     -0.97764155	     63.54443865	      0.29161424	     -6.36524914	     11.62051617	      0.20281627	    -17.75665008	      0.00000000	      0.00000000	     64.70228269	     -6.86751102	      2.11729303	     97.03949795	      1.69365874	     28.05815930	      0.00000000	      0.00000000	    -19.25666474	      2.36731783	      5.71250662	     89.93487775	    -11.83873075	     12.18444870	     35.70018342	     79.51275871	      0.00000000	      0.00000000	     89.95181604	    -25.28419159	     16.56659896	     46.01093230	     81.72956494	      0.00000000	      0.00000000
      3.69500000	     -6.48391549	     -9.03909763	      1.88508134	     -0.33318978	      0.71022363	     -0.97758024	     63.59273759	      0.28694656	     -6.29508700	     11.60380033	      0.20252452	    -17.79974210	      0.00000000	      0.00000000	     64.76370689	     -6.83965893	      2.10868538	     97.04492109	      1.69375340	     28.08126285	      0.00000000	      0.00000000	    -19.24625646	      2.34094629	      5.63106363	     89.93496860	    -11.76646901	     12.16563126	     35.77449731	     79.09160128	      0.00000000	      0.00000000	     89.95177952	    -25.35004711	     16.54462683	     45.98844787	     81.57055434	      0.00000000	      0.00000000
      3.70000000	     -6.46878538	     -9.09600609	      1.92079281	     -0.33324504	      0.71003308	     -0.97754183	     63.54700240	      0.30204756	     -6.36211485	     11.52892039	      0.20121762	    -17.78564797	      0.00000000	      0.00000000	     64.78895644	     -6.87986819	      2.15433102	     97.07981080	      1.69436234	     28.14124858	      0.00000000	      0.00000000	    -19.28302418	      2.40240351	      5.55748837	     89.93486832	    -11.66762606	     13.26787543	     35.97373247	     69.09927814	      0.00000000	      0.00000000	     89.95160401	    -25.41706856	     17.58175056	     46.34383318	     70.73010080	      0.00000000	      0.00000000
      3.70500000	     -6.55800813	     -9.08774471	      1.87199885	     -0.33321259	      0.70980208	     -0.97739836	     63.65451666	      0.35420530	     -6.31365973	     11.55437621	      0.20166191	    -17.67981265	      0.00000000	      0.00000000	     64.90942041	     -6.94039266	      2.11926425	     97.12966941	      1.69523253	     28.02709667	      0.00000000	      0.00000000	    -19.19890682	      2.35829648	      5.59004019	     89.93512685	    -11.76787837	     12.17885910	     35.70973630	     79.54721699	      0.00000000	      0.00000000	     89.95173499	    -25.36851181	     16.49617016	     46.02390411	     81.73015192	      0.00000000	      0.00000000
      3.71000000	     -6.61138473	     -9.16359512	      1.90008492	     -0.33325355	      0.70957027	     -0.97737219	     63.70867793	      0.37718992	     -6.38503151	     11.53735374	      0.20136481	    -17.70469802	      0.00000000	      0.00000000	     65.01184424	     -6.97830869	      2.18845177	     97.16460119	      1.69584221	     28.04177512	      0.00000000	      0.00000000	    -19.16090478	      2.43863125	      5.55543760	     89.93508784	    -11.77217133	     12.17571185	     35.71311850	     79.60466400	      0.00000000	      0.00000000	     89.95177361	    -25.36354707	     16.45365247	     46.01607948	     81.68643888	      0.00000000	      0.00000000
      3.71500000	     -6.60202614	     -9.15211893	      1.91042925	     -0.33322754	      0.70951017	     -0.97737676	     63.69210663	      0.36140166	     -6.42807990	     11.53386963	      0.20130400	    -17.64864632	      0.00000000	      0.00000000	     65.02388659	     -6.99708882	      2.15460782	     97.19304689	      1.69633868	     28.00420996	      0.00000000	      0.00000000	    -19.19490130	      2.42497670	      5.53863380	     89.93510850	    -11.78642581	     12.15620908	     35.73273264	     79.61760005	      0.00000000	      0.00000000	     89.95179187	    -25.34293113	     16.45258888	     46.01392954	     81.60920601	      0.00000000	      0.00000000
      3.72000000	     -6.63191649	     -9.15006526	      1.92196288	     -0.33326860	      0.70936446	     -0.97734447	     63.71880965	      0.36095244	     -6.40292289	     11.51261215	      0.20093299	    -17.67624903	      0.00000000	      0.00000000	     65.07136984	     -6.99738903	      2.15856563	     97.20709699	      1.69658390	     27.97068095	      0.00000000	      0.00000000	    -19.18822271	      2.41225013	      5.52717251	     89.93496593	    -11.81151416	     12.10007414	     35.75882746	     79.57589151	      0.00000000	      0.00000000	     89.95188672	    -25.31589027	     16.41571087	     46.05348666	     81.68433040	      0.00000000	      0.00000000
      3.72500000	     -6.64721126	     -9.17776419	      1.95230670	     -0.33328272	      0.70921886	     -0.97734696	     63.72530274	      0.35225289	     -6.43824003	     11.49231474	      0.20057873	    -17.70615911	      0.00000000	      0.00000000	     65.12444772	     -7.02125632	      2.16187162	     97.23144344	      1.69700882	     27.94140109	      0.00000000	      0.00000000	    -19.18901258	      2.45559111	      5.47394907	     89.93495565	    -11.79395338	     12.13956903	     35.81631018	     79.15533539	      0.00000000	      0.00000000	     89.95187504	    -25.32766056	     16.45674288	     45.99209662	     81.34733788	      0.00000000	      0.00000000
      3.73000000	     -6.65373655	     -9.15642625	      1.99675670	     -0.33328289	      0.70915524	     -0.97741676	     63.73882968	      0.29774581	     -6.47300319	     11.52908084	      0.20122042	    -17.71931237	      0.00000000	      0.00000000	     65.14435277	     -6.97133393	      2.16252353	     97.24595397	      1.69726208	     27.92680996	      0.00000000	      0.00000000	    -19.20453178	      2.43668533	      5.38524520	     89.93514008	    -11.77705950	     12.05284324	     35.77815403	     79.49894155	      0.00000000	      0.00000000	     89.95191244	    -25.36386726	     16.41725435	     46.01311460	     81.78650434	      0.00000000	      0.00000000
      3.73500000	     -6.65198827	     -9.19893528	      2.05473229	     -0.33338399	      0.70900298	     -0.97741081	     63.71781687	      0.27143961	     -6.56425140	     11.47126387	      0.20021132	    -17.90439704	      0.00000000	      0.00000000	     65.18846339	     -6.99015104	      2.18480195	     97.27486921	      1.69776675	     27.96273372	      0.00000000	      0.00000000	    -19.23438635	      2.49389428	      5.30609720	     89.93510855	    -11.68191239	     13.07155794	     36.02385335	     69.62440954	      0.00000000	      0.00000000	     89.95175643	    -25.40832876	     17.44726858	     46.35417303	     71.12726240	      0.00000000	      0.00000000
